# xmcd
#
# Track frame offsets:
#	150
#	6472
#	29040
#	43160
#	55300
#	71560
#	87332
#	97005
#	107652
#	121745
#	139840
#	151787
#	181012
#
# Disc length: 2601 seconds
#
# Revision: 1
# Processed by: cddbd v1.5.2PL0 Copyright (c) Steve Scherf et al.
# Submitted via: audiograbber 1.83.01
#
DISCID=ae0a270d
DTITLE=Pinetop Seven - Pinetop Seven
DYEAR=1997
DGENRE=
TTITLE0=Tearing It Down At Dark
TTITLE1=Money From Home
TTITLE2=Paramour
TTITLE3=Big Dumb Friend
TTITLE4=Skyway to Alice
TTITLE5=Starlet
TTITLE6=Think About You At Odd Times
TTITLE7=40 Watt Bulb
TTITLE8=Attic
TTITLE9=Out On The Broad American Night
TTITLE10=Flushed With Sun and Passion
TTITLE11=Can I Walk You Home\\
TTITLE12=Tennessee Pride
EXTD=
EXTT0=
EXTT1=
EXTT2=
EXTT3=
EXTT4=
EXTT5=
EXTT6=
EXTT7=
EXTT8=
EXTT9=
EXTT10=
EXTT11=
EXTT12=
PLAYORDER=
